<svg xmlns="http://www.w3.org/2000/svg" viewBox="0 0 512 512">
  <defs>
    <linearGradient id="bg" x1="0" x2="1" y1="0" y2="1">
      <stop offset="0" stop-color="#ffd8ec"/>
      <stop offset="0.55" stop-color="#fff5b8"/>
      <stop offset="1" stop-color="#c8f7ff"/>
    </linearGradient>
    <linearGradient id="egg" x1="0" x2="1" y1="0" y2="1">
      <stop offset="0" stop-color="#ffffff"/>
      <stop offset="0.58" stop-color="#ffd8ec"/>
      <stop offset="1" stop-color="#ff95c9"/>
    </linearGradient>
  </defs>
  <rect x="32" y="32" width="448" height="448" rx="112" fill="url(#bg)"/>
  <circle cx="132" cy="120" r="72" fill="#fff7a8" opacity=".45"/>
  <circle cx="392" cy="120" r="78" fill="#ffffff" opacity=".38"/>
  <ellipse cx="256" cy="306" rx="118" ry="154" fill="url(#egg)" stroke="#ff7db8" stroke-width="14"/>
  <path d="M178 333c45 32 105 32 156 0" fill="none" stroke="#fff" stroke-width="19" stroke-linecap="round" opacity=".75"/>
  <ellipse cx="208" cy="244" rx="25" ry="47" fill="#fff" opacity=".7" transform="rotate(28 208 244)"/>
  <g transform="rotate(-8 256 142)">
    <path d="M256 34l54 68H202z" fill="#4a3042"/>
    <rect x="204" y="102" width="104" height="66" rx="20" fill="#ff8ac1"/>
    <rect x="204" y="168" width="104" height="152" rx="24" fill="#ffe16c"/>
    <rect x="204" y="274" width="104" height="46" rx="18" fill="#b98752"/>
  </g>
  <circle cx="216" cy="306" r="16" fill="#4a3042"/>
  <circle cx="296" cy="306" r="16" fill="#4a3042"/>
  <path d="M235 344q21 27 42 0" fill="none" stroke="#4a3042" stroke-width="12" stroke-linecap="round"/>
  <ellipse cx="188" cy="342" rx="24" ry="14" fill="#ff8ac1" opacity=".55"/>
  <ellipse cx="324" cy="342" rx="24" ry="14" fill="#ff8ac1" opacity=".55"/>
</svg>
